<?xml version="1.0" standalone="no"?>
<!DOCTYPE svg PUBLIC "-//W3C//DTD SVG 20010904//EN"
 "http://www.w3.org/TR/2001/REC-SVG-20010904/DTD/svg10.dtd">
<svg version="1.0" xmlns="http://www.w3.org/2000/svg"
 width="349.000000pt" height="204.000000pt" viewBox="0 0 349.000000 204.000000"
 preserveAspectRatio="xMidYMid meet">

<g transform="translate(0.000000,204.000000) scale(0.100000,-0.100000)"
fill="#000000" stroke="none">
<path d="M1144 1800 c-26 -25 -82 -122 -89 -154 -1 -6 -5 -20 -9 -31 -5 -11
-12 -32 -18 -47 -6 -15 -9 -57 -6 -92 3 -58 7 -67 42 -103 74 -74 124 -218
112 -324 -13 -124 -135 -325 -298 -489 -89 -89 -130 -126 -265 -243 -94 -80
-122 -117 -91 -117 17 0 117 53 113 60 -2 3 4 6 14 7 10 1 33 11 52 22 19 11
46 27 61 36 123 70 433 336 494 425 13 19 46 64 74 100 45 57 55 78 51 102 0
5 5 7 12 5 6 -1 12 5 12 13 0 8 3 17 6 20 8 8 45 90 58 133 12 35 11 39 -11
57 -12 10 -33 21 -46 25 -68 17 -208 147 -243 224 -31 67 -37 211 -14 299 10
37 22 72 27 79 20 25 -11 20 -38 -7z m273 -616 c-3 -3 -12 -4 -19 -1 -8 3 -5
6 6 6 11 1 17 -2 13 -5z m-34 -199 c-3 -9 -8 -14 -10 -11 -3 3 -2 9 2 15 9 16
15 13 8 -4z m-373 -345 c0 -5 -5 -10 -11 -10 -5 0 -7 5 -4 10 3 6 8 10 11 10
2 0 4 -4 4 -10z m-330 -304 c0 -3 -4 -8 -10 -11 -5 -3 -10 -1 -10 4 0 6 5 11
10 11 6 0 10 -2 10 -4z"/>
<path d="M1372 1462 c-29 -27 -32 -35 -32 -90 0 -50 4 -66 26 -91 24 -29 31
-31 89 -31 56 0 67 3 91 26 24 25 26 32 22 93 -5 88 -28 113 -108 119 -51 4
-58 1 -88 -26z"/>
<path d="M1725 1119 c-60 -34 -59 -73 5 -144 41 -45 48 -59 41 -77 -12 -32
-55 -44 -86 -24 -14 9 -25 23 -25 31 0 19 -16 19 -24 0 -13 -34 20 -65 69 -65
56 0 105 45 105 96 0 8 -20 37 -45 63 -25 26 -45 57 -45 68 0 42 48 57 83 26
18 -17 19 -17 16 7 -3 21 -10 25 -39 27 -19 2 -44 -2 -55 -8z"/>
<path d="M2566 1101 c-12 -21 -25 -30 -54 -35 -40 -6 -78 -35 -119 -91 l-21
-30 8 39 c5 22 7 44 4 48 -9 13 -34 9 -40 -7 -9 -24 -64 -18 -93 9 -34 32 -71
43 -71 22 0 -10 -9 -16 -22 -16 -43 -1 -88 -54 -88 -103 0 -13 9 -36 21 -51
45 -57 159 -12 174 68 6 29 10 32 41 32 37 -1 38 -2 25 -78 -7 -41 -5 -48 9
-48 9 0 25 19 37 44 34 69 78 114 107 109 18 -4 26 0 31 16 7 22 25 29 25 9 0
-6 -5 -37 -11 -67 -15 -74 -2 -111 39 -111 33 0 82 34 82 56 0 11 -7 9 -30 -7
-24 -18 -32 -20 -45 -9 -18 15 -19 32 -3 99 l11 51 62 0 62 0 -5 -29 c-2 -15
4 -43 13 -61 17 -33 17 -34 -6 -51 -13 -10 -27 -19 -31 -19 -5 0 -8 -11 -8
-25 0 -33 37 -42 79 -21 26 14 31 22 31 51 0 19 4 35 8 35 16 0 92 72 86 81
-3 6 -23 -6 -45 -26 -21 -19 -45 -35 -52 -35 -20 0 -41 50 -27 64 18 18 12 46
-10 46 -11 0 -20 3 -20 8 0 4 -27 5 -60 4 -63 -4 -70 1 -50 39 9 16 7 19 -9
19 -12 0 -26 -12 -35 -29z m-352 -87 c19 -7 20 -38 5 -83 -19 -54 -81 -70
-100 -27 -29 62 34 133 95 110z m536 -127 c0 -17 -20 -37 -37 -37 -19 0 -16
27 5 39 23 14 32 13 32 -2z"/>
<path d="M1840 1074 c0 -8 11 -14 25 -14 14 0 25 -4 25 -9 0 -4 -11 -63 -25
-131 -31 -152 -31 -170 -5 -170 16 0 20 7 20 38 0 68 6 77 53 77 26 0 52 8 69
20 90 67 42 215 -54 164 -19 -10 -20 -9 -16 15 5 25 4 26 -43 24 -34 0 -49 -5
-49 -14z m151 -54 c14 -8 19 -21 19 -51 0 -62 -55 -107 -99 -80 -18 12 2 109
27 127 21 16 28 17 53 4z"/>
<path d="M298 980 c-65 -11 -130 -49 -142 -82 -15 -41 0 -45 37 -10 59 57 166
82 201 47 26 -27 -17 -95 -60 -95 -23 0 -49 -31 -37 -44 3 -3 16 -3 28 0 28 7
82 -20 90 -45 15 -48 -48 -111 -111 -111 -53 0 -57 15 -34 126 11 55 20 112
20 127 0 25 -3 27 -22 21 -13 -3 -24 -7 -24 -8 -5 -5 -44 -237 -44 -258 0 -34
28 -43 105 -35 138 14 215 123 134 191 -17 14 -35 26 -41 26 -6 0 1 9 14 20
14 10 31 33 37 49 17 40 1 67 -47 81 -41 11 -37 11 -104 0z"/>
<path d="M520 975 c0 -18 23 -35 47 -35 29 0 29 -4 -2 -159 -31 -156 -31 -163
-3 -159 22 3 32 34 57 168 1 3 15 -19 31 -48 42 -73 111 -142 141 -142 30 0
69 26 69 46 0 12 -3 12 -24 -1 -22 -15 -26 -14 -57 12 -29 25 -109 136 -109
152 0 4 32 32 70 64 70 57 84 83 56 107 -12 9 -18 5 -35 -28 -17 -34 -95 -110
-122 -120 -12 -5 -11 10 5 86 7 34 13 62 12 63 0 0 -31 1 -69 2 -41 1 -67 -2
-67 -8z"/>
<path d="M1386 901 c-25 -43 -60 -95 -76 -116 -17 -21 -29 -43 -27 -49 2 -6
35 -13 74 -16 39 -3 75 -8 79 -13 16 -16 -67 -139 -153 -226 -50 -50 -66 -81
-43 -81 19 0 119 58 188 108 67 48 163 142 171 165 2 7 17 28 32 48 45 57 40
103 -13 156 -62 61 -76 73 -83 73 -4 0 -13 7 -21 15 -9 8 -30 15 -48 15 -31 0
-37 -6 -80 -79z"/>
<path d="M1680 711 c0 -4 5 -22 11 -38 8 -24 5 -51 -16 -133 -26 -104 -24
-130 9 -117 9 4 13 12 11 19 -3 7 1 43 8 78 l14 65 15 -36 c9 -20 26 -44 39
-53 30 -20 52 -7 96 57 l31 47 -5 -95 c-6 -92 -5 -95 16 -95 19 0 21 5 21 59
0 33 5 94 11 137 6 45 7 80 1 86 -16 16 -37 -2 -60 -55 -12 -29 -33 -66 -46
-82 -35 -43 -55 -26 -90 78 -23 67 -34 87 -48 87 -10 0 -18 -4 -18 -9z"/>
<path d="M3036 633 c-4 -5 -25 -8 -47 -9 -44 0 -87 -27 -107 -66 -19 -40 -82
-92 -95 -79 -13 13 -10 91 4 128 9 23 8 25 -13 18 -13 -4 -32 -6 -43 -5 -64 7
-76 2 -136 -56 l-62 -58 -18 23 c-21 26 -24 47 -9 56 19 12 11 45 -11 45 -13
0 -25 -11 -34 -33 -12 -29 -82 -96 -89 -86 -33 50 -35 56 -19 72 19 19 10 50
-14 45 -9 -2 -27 -23 -40 -48 -26 -51 -88 -113 -106 -107 -17 5 -20 53 -7 105
12 50 9 58 -16 44 -11 -6 -28 -6 -49 1 -66 20 -139 -56 -133 -137 5 -72 67
-75 118 -4 25 34 30 37 30 19 0 -75 51 -80 124 -12 51 49 52 50 65 28 12 -18
12 -23 -4 -32 -48 -28 -60 -43 -49 -62 28 -46 114 -11 114 46 1 19 12 34 39
52 l37 26 15 -26 c14 -25 13 -27 -16 -46 -42 -29 -42 -69 1 -73 38 -4 74 24
76 58 3 44 38 71 38 29 0 -36 19 -59 50 -59 21 0 38 11 69 46 l40 45 3 -38 c4
-48 31 -55 84 -22 33 20 37 21 46 6 15 -28 63 -21 104 15 35 31 36 31 32 7 -2
-17 -17 -32 -50 -49 -63 -34 -88 -59 -88 -87 0 -16 8 -27 26 -33 38 -15 58
-12 95 13 27 18 37 34 49 80 12 46 22 62 47 78 32 20 33 20 39 2 19 -61 22
-63 73 -63 40 0 57 6 92 33 51 39 105 104 95 114 -4 4 -23 -11 -43 -35 -19
-23 -55 -54 -80 -68 -37 -22 -48 -25 -69 -16 -36 17 -29 37 17 51 49 15 79 43
79 76 0 30 -31 49 -70 40 -15 -3 -55 -33 -89 -66 -71 -69 -86 -74 -77 -24 3
19 9 51 12 70 5 27 3 35 -8 35 -8 0 -18 -3 -22 -7z m-20 -45 c12 -19 -65 -108
-92 -108 -9 0 -14 12 -14 36 0 45 46 96 79 87 12 -3 24 -10 27 -15z m234 -9
c0 -17 -51 -59 -72 -59 -18 0 -6 34 22 61 31 32 50 31 50 -2z m-1119 11 c19
-11 18 -12 -10 -53 -62 -90 -97 -98 -88 -20 8 70 47 100 98 73z m599 0 c12 -7
8 -19 -26 -67 -51 -72 -79 -78 -78 -16 1 75 52 116 104 83z m-380 -151 c-11
-20 -35 -25 -45 -10 -6 12 35 42 47 35 4 -3 3 -14 -2 -25z m160 18 c0 -17 -20
-37 -37 -37 -19 0 -16 20 5 36 22 17 32 17 32 1z m490 -67 c-7 -27 -19 -44
-33 -49 -26 -10 -57 3 -57 25 0 14 89 78 97 70 3 -2 -1 -23 -7 -46z"/>
<path d="M1140 270 c0 -5 5 -10 10 -10 6 0 10 -9 10 -21 0 -16 -4 -19 -20 -14
-16 5 -30 -3 -58 -34 -21 -23 -41 -41 -46 -41 -5 0 -6 17 -3 38 6 37 6 38 -26
37 -17 -1 -42 -8 -55 -16 -18 -11 -25 -11 -40 -1 -33 23 -41 24 -72 2 -18 -13
-30 -30 -30 -44 0 -56 73 -59 93 -6 14 36 27 39 27 6 0 -13 7 -29 15 -36 13
-11 20 -9 40 10 21 20 25 21 25 7 0 -19 35 -24 45 -6 5 7 14 4 26 -7 18 -16
20 -16 43 5 23 22 23 22 29 2 8 -30 25 -26 64 15 44 47 34 58 -13 13 l-37 -34
6 40 c4 22 9 55 13 73 6 30 5 32 -20 32 -14 0 -26 -4 -26 -10z m-137 -66 c9
-9 -23 -54 -39 -54 -17 0 -17 1 -4 34 9 24 29 34 43 20z m142 -3 c3 -5 -6 -22
-20 -38 -23 -27 -24 -27 -25 -6 0 44 27 71 45 44z m-257 -22 c-4 -29 -33 -48
-49 -32 -16 16 6 53 32 53 15 0 20 -5 17 -21z"/>
<path d="M683 248 c-13 -6 -23 -18 -23 -26 0 -12 3 -12 16 -1 14 11 15 6 8
-49 -4 -44 -3 -62 5 -62 6 0 11 9 11 19 0 26 10 51 21 51 5 0 9 -6 9 -13 0 -8
8 -21 18 -30 16 -15 21 -15 38 -2 19 14 19 14 -2 15 -29 0 -39 28 -18 51 26
29 14 54 -26 56 -19 1 -45 -3 -57 -9z m75 -24 c-2 -9 -13 -20 -24 -25 -19 -6
-22 -4 -20 17 1 18 7 24 24 24 16 0 22 -5 20 -16z"/>
<path d="M1304 245 c-4 -8 -14 -15 -23 -16 -10 0 -12 -2 -3 -6 8 -3 11 -16 7
-36 -4 -20 -1 -39 8 -51 14 -18 16 -19 38 -4 21 13 26 13 38 1 20 -22 54 -11
76 24 11 18 29 33 40 34 20 1 20 1 0 6 -10 3 -29 12 -41 20 -20 13 -26 12 -53
-1 -16 -9 -32 -25 -36 -36 -3 -11 -15 -25 -26 -31 -19 -10 -20 -8 -17 28 3 35
6 38 36 41 17 2 32 7 32 11 0 5 -11 6 -25 3 -18 -3 -25 0 -25 12 0 20 -19 21
-26 1z m126 -69 c0 -24 -23 -41 -41 -30 -13 8 -11 42 4 47 26 11 37 6 37 -17z"/>
<path d="M1553 248 c-13 -6 -23 -18 -23 -26 0 -12 3 -12 16 -1 14 11 15 6 8
-49 -4 -44 -3 -62 5 -62 6 0 11 10 11 23 0 28 19 57 27 40 2 -7 12 -22 21 -33
16 -19 19 -20 37 -6 20 15 20 15 -1 16 -31 0 -37 27 -14 57 15 20 17 29 9 39
-13 16 -65 17 -96 2z m75 -27 c-5 -23 -46 -27 -44 -4 0 10 5 21 10 25 15 10
37 -3 34 -21z"/>
<path d="M1719 223 c-20 -5 -42 -45 -37 -68 6 -33 35 -42 70 -22 28 16 32 16
48 2 21 -19 41 -19 66 -1 16 13 21 12 36 -1 26 -23 68 -9 81 27 16 42 44 39
53 -5 3 -19 10 -35 15 -35 15 0 61 78 54 91 -5 7 -13 0 -21 -20 -16 -37 -29
-34 -37 9 -4 19 -13 30 -23 30 -10 0 -14 -5 -10 -15 7 -20 -13 -19 -35 1 -24
22 -52 11 -89 -37 -33 -41 -66 -51 -77 -23 -9 24 11 49 37 46 14 -1 20 2 17
10 -8 24 -50 8 -84 -32 -19 -22 -43 -40 -54 -40 -28 0 -23 12 11 32 17 9 30
22 30 27 0 14 -31 28 -51 24z m8 -40 c-15 -16 -17 -16 -17 -1 0 9 6 18 13 21
20 7 22 -2 4 -20z m238 7 c9 -14 -13 -50 -31 -50 -8 0 -17 7 -20 15 -11 29 35
61 51 35z"/>
<path d="M2148 223 c-23 -6 -44 -61 -31 -82 16 -25 42 -25 74 -2 23 17 29 18
29 7 0 -31 20 -25 41 14 29 51 61 54 79 9 16 -37 5 -62 -29 -67 -22 -4 -28
-17 -12 -27 27 -16 135 125 113 147 -6 6 -14 -3 -22 -26 -14 -44 -22 -45 -38
-4 -6 17 -15 29 -18 25 -4 -4 -13 -2 -20 4 -10 8 -20 4 -40 -16 -15 -15 -24
-20 -21 -12 11 30 -6 25 -42 -14 -21 -21 -45 -39 -54 -39 -26 0 -20 13 13 32
17 9 30 22 30 27 0 14 -31 28 -52 24z m14 -35 c-6 -6 -15 -8 -19 -4 -4 4 -1
11 7 16 19 12 27 3 12 -12z"/>
</g>
</svg>
