<?xml version="1.0" standalone="no"?>
<!DOCTYPE svg PUBLIC "-//W3C//DTD SVG 20010904//EN"
 "http://www.w3.org/TR/2001/REC-SVG-20010904/DTD/svg10.dtd">
<svg version="1.0" xmlns="http://www.w3.org/2000/svg"
 width="792.000000pt" height="456.000000pt" viewBox="0 0 792.000000 456.000000"
 preserveAspectRatio="xMidYMid meet">

<g transform="translate(0.000000,456.000000) scale(0.100000,-0.100000)"
fill="#000000" stroke="none">
<path d="M2470 4270 c-63 -64 -95 -114 -84 -132 4 -6 3 -8 -3 -5 -10 7 -49
-41 -46 -55 2 -3 -4 -12 -12 -18 -8 -7 -15 -18 -15 -25 0 -7 -7 -18 -15 -25
-9 -7 -14 -19 -11 -27 3 -8 2 -12 -2 -9 -15 9 -73 -138 -103 -261 -18 -73 -20
-109 -17 -213 5 -143 11 -158 88 -240 86 -93 160 -212 221 -357 7 -17 16 -30
20 -27 4 2 5 -4 3 -13 -3 -10 2 -38 11 -62 8 -24 18 -68 21 -98 4 -29 10 -53
13 -53 3 0 2 -62 -2 -137 -5 -76 -9 -153 -10 -171 0 -18 -4 -28 -7 -21 -4 6
-10 -2 -13 -18 -3 -15 -9 -37 -13 -47 -6 -15 -4 -17 7 -11 10 6 9 2 -2 -11 -9
-10 -33 -53 -52 -94 -20 -41 -47 -92 -61 -113 -15 -21 -23 -44 -20 -50 4 -7 4
-9 -1 -5 -5 5 -15 -2 -23 -13 -12 -18 -13 -23 -1 -31 11 -7 11 -8 -3 -6 -23 4
-133 -152 -115 -165 8 -5 4 -6 -9 -3 -16 5 -24 0 -34 -21 -8 -16 -14 -35 -15
-43 0 -8 -7 -14 -15 -13 -8 1 -32 -22 -52 -50 -21 -29 -50 -66 -65 -83 -71
-78 -68 -74 -53 -86 12 -8 11 -9 -4 -4 -11 4 -22 3 -25 -2 -16 -24 -83 -102
-138 -161 -35 -36 -63 -68 -63 -71 0 -10 55 -8 62 3 4 6 10 8 15 4 13 -14 -21
-27 -59 -22 -26 3 -40 0 -45 -9 -4 -8 -36 -44 -71 -80 -35 -37 -60 -71 -57
-76 3 -5 0 -7 -8 -4 -16 6 -81 -62 -72 -75 2 -5 -1 -8 -9 -7 -11 1 -240 -206
-343 -311 -17 -18 -34 -33 -38 -33 -3 0 -20 -13 -38 -29 -82 -73 -101 -93 -83
-87 10 4 25 1 32 -5 7 -6 19 -7 25 -3 8 4 9 3 5 -4 -4 -7 -22 -10 -42 -7 -36
4 -43 -5 -19 -25 12 -10 19 -10 27 -2 7 7 17 12 22 12 6 0 4 -4 -4 -10 -27
-17 0 -24 33 -8 18 8 46 21 62 29 50 22 60 32 39 39 -16 6 -15 7 4 12 14 4 20
2 15 -5 -10 -16 19 -3 82 38 31 19 60 35 65 35 5 0 6 7 3 17 -4 11 -3 14 5 9
12 -7 64 17 89 41 7 6 22 15 33 18 20 6 26 20 13 28 -5 2 -2 2 5 1 20 -5 103
49 97 64 -3 7 0 10 5 7 5 -3 35 12 67 35 32 22 88 61 124 86 37 25 77 56 89
69 13 14 29 25 35 25 6 0 30 17 52 38 23 20 60 50 82 66 22 16 38 33 35 38 -3
5 -2 8 3 7 20 -3 27 2 13 11 -12 8 -11 10 6 8 14 -2 46 19 95 62 105 92 449
432 449 443 0 5 -8 3 -17 -4 -16 -13 -17 -12 -5 3 8 9 19 15 26 12 7 -3 20 5
28 18 9 13 26 35 39 49 38 40 99 121 99 131 0 4 6 8 13 8 17 0 59 44 50 53 -3
4 -1 7 5 7 16 0 43 66 36 88 -5 14 -4 14 5 2 8 -11 18 3 47 65 20 44 46 100
59 125 12 25 26 56 30 70 4 14 17 48 30 75 63 141 85 193 85 206 0 8 9 28 19
46 12 18 17 41 14 55 -3 16 -2 19 5 10 7 -11 11 -7 16 14 8 30 11 28 -84 81
-97 54 -185 118 -274 197 -74 66 -98 90 -185 186 -17 19 -35 35 -39 36 -22 2
-42 18 -42 33 0 12 5 10 20 -9 32 -41 23 -13 -19 55 -21 35 -42 61 -46 57 -5
-4 -5 -1 -1 6 4 6 -2 29 -13 50 -62 114 -97 306 -88 472 6 96 39 244 77 339
24 63 27 131 5 131 -9 0 -42 -27 -75 -60z m1 -33 c-10 -9 -11 -8 -5 6 3 10 9
15 12 12 3 -3 0 -11 -7 -18z m-24 -39 c-3 -8 -6 -5 -6 6 -1 11 2 17 5 13 3 -3
4 -12 1 -19z m-17 -16 c0 -4 -10 -13 -22 -21 -23 -14 -23 -14 -4 8 20 22 26
25 26 13z m58 -43 c-3 -8 -7 -3 -11 10 -4 17 -3 21 5 13 5 -5 8 -16 6 -23z
m19 9 c-3 -8 -6 -5 -6 6 -1 11 2 17 5 13 3 -3 4 -12 1 -19z m-115 -60 c-8 -8
-9 -4 -5 13 4 13 8 18 11 10 2 -7 -1 -18 -6 -23z m-72 -143 c0 -5 -5 -3 -10 5
-8 12 -10 12 -10 1 0 -8 -2 -12 -5 -9 -3 3 -2 13 1 22 5 14 9 15 15 4 5 -7 9
-17 9 -23z m127 3 c-3 -7 -5 -2 -5 12 0 14 2 19 5 13 2 -7 2 -19 0 -25z m-20
-60 c-3 -7 -5 -2 -5 12 0 14 2 19 5 13 2 -7 2 -19 0 -25z m20 -230 c-2 -13 -4
-5 -4 17 -1 22 1 32 4 23 2 -10 2 -28 0 -40z m-236 19 c-10 -9 -11 -8 -5 6 3
10 9 15 12 12 3 -3 0 -11 -7 -18z m296 -239 c-3 -8 -6 -5 -6 6 -1 11 2 17 5
13 3 -3 4 -12 1 -19z m-10 -40 c-3 -8 -6 -5 -6 6 -1 11 2 17 5 13 3 -3 4 -12
1 -19z m23 -28 c0 -5 -5 -10 -11 -10 -5 0 -7 5 -4 10 3 6 8 10 11 10 2 0 4 -4
4 -10z m-120 -275 c0 -5 -5 -3 -10 5 -5 8 -10 20 -10 25 0 6 5 3 10 -5 5 -8
10 -19 10 -25z m350 -15 c0 -5 -5 -10 -11 -10 -5 0 -7 5 -4 10 3 6 8 10 11 10
2 0 4 -4 4 -10z m-285 -90 c3 -5 1 -10 -4 -10 -6 0 -11 5 -11 10 0 6 2 10 4
10 3 0 8 -4 11 -10z m385 -14 c0 -2 -7 -7 -16 -10 -8 -3 -12 -2 -9 4 6 10 25
14 25 6z m74 -72 c5 -14 4 -15 -9 -4 -17 14 -19 20 -6 20 5 0 12 -7 15 -16z
m-386 -60 c-3 -14 -5 -12 -10 9 -3 19 -2 25 4 19 6 -6 8 -18 6 -28z m450 8
c-10 -2 -18 -8 -18 -14 0 -6 -3 -8 -6 -5 -11 10 17 38 30 30 7 -5 5 -9 -6 -11z
m-461 -64 c-3 -7 -5 -2 -5 12 0 14 2 19 5 13 2 -7 2 -19 0 -25z m24 -79 c-5
-13 -10 -19 -10 -12 -1 15 10 45 15 40 3 -2 0 -15 -5 -28z m599 -197 c0 -5 -7
-17 -15 -28 -14 -18 -14 -17 -4 9 12 27 19 34 19 19z m-633 -244 c-3 -8 -6 -5
-6 6 -1 11 2 17 5 13 3 -3 4 -12 1 -19z m483 -38 c0 -5 -2 -10 -4 -10 -3 0 -8
5 -11 10 -3 6 -1 10 4 10 6 0 11 -4 11 -10z m-11 -65 c0 -5 -4 -3 -9 5 -5 8
-9 22 -9 30 0 16 17 -16 18 -35z m-516 -70 c-3 -9 -8 -14 -10 -11 -3 3 -2 9 2
15 9 16 15 13 8 -4z m-25 -30 c-3 -3 -9 2 -12 12 -6 14 -5 15 5 6 7 -7 10 -15
7 -18z m459 -68 c0 -8 -6 -14 -14 -14 -17 0 -17 14 0 20 6 3 12 6 13 6 0 1 1
-5 1 -12z m-227 -247 c0 -5 -2 -10 -4 -10 -3 0 -8 5 -11 10 -3 6 -1 10 4 10 6
0 11 -4 11 -10z m-70 -77 c-8 -3 -18 -11 -22 -17 -4 -6 -10 -7 -15 -3 -9 10
16 27 37 26 13 -1 13 -1 0 -6z m-8 -45 c-7 -7 -12 -8 -12 -2 0 14 12 26 19 19
2 -3 -1 -11 -7 -17z m-37 -38 c-3 -5 -12 -10 -18 -10 -7 0 -6 4 3 10 19 12 23
12 15 0z m-55 -4 c0 -3 -4 -8 -10 -11 -5 -3 -10 -1 -10 4 0 6 5 11 10 11 6 0
10 -2 10 -4z m30 -19 c0 -2 -12 -14 -26 -28 l-27 -24 18 28 c14 22 35 36 35
24z m-110 -67 c0 -5 -5 -10 -11 -10 -5 0 -7 5 -4 10 3 6 8 10 11 10 2 0 4 -4
4 -10z m40 -4 c0 -3 -4 -8 -10 -11 -5 -3 -10 -1 -10 4 0 6 5 11 10 11 6 0 10
-2 10 -4z m-30 -30 c0 -3 -4 -8 -10 -11 -5 -3 -10 -1 -10 4 0 6 5 11 10 11 6
0 10 -2 10 -4z m-80 -56 c8 -5 12 -11 10 -14 -3 -2 -14 2 -24 10 -22 15 -10
19 14 4z m-422 -20 c-7 -10 -14 -17 -17 -15 -4 4 18 35 25 35 2 0 -1 -9 -8
-20z m342 -70 c0 -5 -5 -10 -11 -10 -5 0 -7 5 -4 10 3 6 8 10 11 10 2 0 4 -4
4 -10z m-456 -55 c-9 -14 -21 -25 -27 -25 -6 0 0 11 13 25 13 14 25 25 27 25
2 0 -4 -11 -13 -25z m386 -10 c-7 -9 -15 -13 -19 -10 -3 3 1 10 9 15 21 14 24
12 10 -5z m-473 -131 c-3 -3 -12 -4 -19 -1 -8 3 -5 6 6 6 11 1 17 -2 13 -5z
m-144 -148 c4 -10 1 -13 -9 -9 -7 3 -14 9 -14 14 0 14 17 10 23 -5z m-80 -80
c4 -10 1 -13 -9 -9 -7 3 -14 9 -14 14 0 14 17 10 23 -5z m192 -44 c-3 -3 -11
0 -18 7 -9 10 -8 11 6 5 10 -3 15 -9 12 -12z m-315 -42 c0 -5 -5 -10 -11 -10
-5 0 -7 5 -4 10 3 6 8 10 11 10 2 0 4 -4 4 -10z m170 -24 c0 -3 -4 -8 -10 -11
-5 -3 -10 -1 -10 4 0 6 5 11 10 11 6 0 10 -2 10 -4z m-230 -26 c0 -5 -5 -10
-11 -10 -5 0 -7 5 -4 10 3 6 8 10 11 10 2 0 4 -4 4 -10z m210 -20 c0 -5 -5
-10 -11 -10 -5 0 -7 5 -4 10 3 6 8 10 11 10 2 0 4 -4 4 -10z m-264 -35 c2 -22
0 -23 -14 -9 -13 14 -13 17 -1 25 8 5 14 9 14 9 0 0 1 -11 1 -25z m4 -62 c0
-7 -7 -3 -28 16 -12 10 -19 21 -15 24 5 6 43 -29 43 -40z m-50 7 c8 -5 11 -10
5 -10 -5 0 -17 5 -25 10 -8 5 -10 10 -5 10 6 0 17 -5 25 -10z m137 -16 c-3 -3
-12 -4 -19 -1 -8 3 -5 6 6 6 11 1 17 -2 13 -5z m-63 -48 c-10 -8 -21 -12 -24
-10 -5 6 21 24 34 24 6 0 1 -6 -10 -14z m-196 -20 c-10 -7 -18 -18 -18 -24 0
-6 -4 -14 -10 -17 -5 -3 -10 -1 -10 4 0 13 36 51 48 51 4 0 -1 -7 -10 -14z
m16 -32 c3 -8 2 -12 -4 -9 -6 3 -10 10 -10 16 0 14 7 11 14 -7z m36 -34 c0 -5
-7 -10 -16 -10 -8 0 -12 5 -9 10 3 6 10 10 16 10 5 0 9 -4 9 -10z"/>
<path d="M3150 3478 c-143 -25 -242 -132 -243 -263 -1 -108 50 -186 158 -243
43 -22 62 -26 135 -26 73 0 92 4 135 26 108 57 159 135 158 244 -1 164 -169
292 -343 262z"/>
<path d="M3901 2639 c-49 -9 -116 -52 -133 -82 -46 -87 -30 -136 81 -251 132
-136 144 -175 76 -235 -65 -56 -168 -48 -212 18 -13 19 -23 45 -23 58 0 20 -2
22 -19 11 -27 -16 -40 -49 -34 -81 13 -68 123 -108 226 -83 143 34 212 165
145 272 -14 21 -62 73 -107 115 -86 81 -96 105 -70 162 32 71 152 76 207 8 11
-14 14 -14 22 -1 41 64 -45 112 -159 89z"/>
<path d="M5830 2643 c-31 -11 -59 -46 -71 -89 l-13 -44 -50 0 c-27 0 -57 -6
-65 -13 -9 -8 -34 -19 -56 -25 -22 -7 -53 -25 -70 -40 -62 -58 -154 -183 -169
-230 -17 -53 -15 -9 4 83 11 53 20 108 20 120 0 27 -26 39 -64 29 -20 -5 -26
-12 -26 -35 0 -24 -5 -29 -36 -35 -20 -4 -61 -1 -91 6 -44 9 -67 23 -114 66
-32 29 -71 56 -86 60 -15 3 -33 7 -40 9 -13 4 -23 -16 -23 -46 0 -13 -7 -19
-22 -19 -83 0 -185 -78 -207 -157 -21 -76 -7 -157 37 -206 22 -25 96 -57 131
-57 129 0 256 123 269 261 4 47 5 48 31 41 14 -4 53 -7 87 -6 l60 1 -7 -41
c-3 -23 -14 -84 -24 -135 -16 -91 -16 -96 1 -108 37 -27 61 -11 83 54 23 67
105 196 161 255 36 38 53 48 78 48 20 0 35 -6 39 -16 5 -13 11 -10 34 12 16
15 29 38 29 51 0 20 5 23 36 23 29 0 34 -3 30 -17 -69 -228 -69 -334 -3 -396
28 -26 36 -28 76 -23 48 7 112 42 149 84 22 25 30 72 12 72 -5 0 -10 -4 -10
-9 0 -5 -19 -23 -42 -40 -53 -39 -109 -42 -132 -9 -26 37 -18 142 23 296 l12
42 137 0 c75 0 142 4 148 8 11 7 34 45 34 56 0 2 -15 0 -32 -5 -18 -5 -86 -9
-151 -9 -135 0 -130 -5 -81 88 13 25 24 47 24 48 0 6 -43 3 -60 -3z m-870
-263 l40 -20 0 -69 c0 -170 -141 -282 -236 -187 -31 31 -34 40 -34 90 0 85 46
162 114 192 43 19 71 17 116 -6z"/>
<path d="M4255 2552 c-51 -10 -82 -12 -112 -5 -52 12 -58 -3 -17 -44 22 -22
31 -24 65 -19 45 7 44 9 24 -82 -32 -151 -115 -580 -115 -599 0 -30 24 -46 60
-38 28 6 30 10 30 48 0 23 7 86 17 140 l17 98 30 -8 c50 -13 140 -7 177 12
158 79 211 300 96 396 -47 39 -129 36 -191 -6 l-35 -24 5 32 c4 18 10 49 16
71 5 21 8 39 6 40 -2 1 -34 -4 -73 -12z m213 -152 c10 0 42 -91 42 -120 0
-127 -107 -233 -203 -200 -70 24 -70 23 -43 154 26 128 39 149 104 171 23 8
46 10 66 4 17 -5 32 -9 34 -9z"/>
<path d="M6122 2462 c-55 -52 -50 -123 18 -234 17 -26 30 -50 30 -52 0 -2 -21
-14 -46 -27 -54 -26 -124 -89 -124 -112 0 -9 11 -29 24 -44 21 -24 31 -28 78
-28 65 1 112 26 146 76 19 27 23 44 20 85 -4 50 -4 51 34 73 48 27 178 149
178 166 0 32 -31 18 -89 -41 -52 -52 -149 -122 -156 -112 -1 2 -18 34 -39 71
l-37 69 36 39 c40 45 41 47 19 77 -21 30 -56 28 -92 -6z m78 -366 c0 -50 -33
-86 -80 -86 -38 0 -55 16 -44 43 6 16 94 77 111 77 8 0 13 -13 13 -34z"/>
<path d="M1000 2293 c0 -30 38 -82 64 -89 14 -3 46 -4 71 -2 26 2 45 -1 45 -7
0 -5 -27 -145 -60 -310 -84 -416 -82 -404 -75 -415 8 -13 39 -13 86 2 34 10
39 15 39 42 0 17 14 102 31 189 26 129 34 155 45 146 8 -6 14 -16 14 -21 0
-22 158 -245 221 -313 76 -80 131 -110 183 -99 63 13 146 79 146 115 0 24 -2
24 -46 -6 -68 -46 -120 -30 -203 61 -52 56 -181 244 -181 262 0 6 -4 12 -9 14
-5 2 -12 15 -16 29 -5 22 -1 29 32 51 119 79 303 248 303 279 0 21 -50 79 -68
79 -5 0 -22 -25 -37 -57 -16 -31 -60 -89 -98 -130 -70 -73 -225 -198 -234
-189 -3 3 11 86 32 186 20 100 35 184 33 186 -3 2 -51 -1 -109 -6 -102 -10
-156 -6 -191 12 -14 7 -18 5 -18 -9z"/>
<path d="M464 2285 c-108 -23 -213 -74 -271 -130 -51 -49 -53 -53 -53 -103 0
-29 3 -52 6 -52 4 0 35 27 70 59 120 113 230 161 366 161 65 0 90 -4 115 -20
62 -37 53 -117 -19 -186 -37 -35 -51 -42 -98 -48 -61 -6 -94 -32 -106 -80 l-7
-29 70 6 c157 15 256 -71 223 -194 -13 -46 -71 -108 -126 -134 -69 -33 -205
-32 -239 1 -23 23 -19 61 35 327 27 136 47 253 44 262 -7 18 -42 19 -95 3 -34
-10 -38 -14 -33 -35 4 -13 -17 -144 -47 -293 -58 -291 -58 -305 -7 -343 22
-16 42 -20 120 -19 154 0 289 44 388 123 76 61 111 151 90 229 -15 54 -75 113
-140 136 l-46 17 67 66 c51 49 70 77 79 109 30 114 -63 183 -244 181 -45 0
-108 -7 -142 -14z"/>
<path d="M3104 2222 c-77 -125 -295 -514 -291 -518 2 -3 80 -11 173 -20 93 -8
170 -17 173 -19 2 -3 -7 -32 -20 -66 -41 -110 -237 -388 -405 -573 -91 -100
-92 -125 -2 -89 61 23 131 70 303 198 401 300 629 556 643 720 4 44 0 60 -26
105 -103 180 -271 296 -455 314 l-58 5 -35 -57z"/>
<path d="M3753 1650 l-22 -9 23 -43 c46 -85 50 -109 26 -195 -51 -185 -90
-347 -90 -378 0 -37 21 -48 71 -38 33 6 33 7 19 34 -12 21 -7 58 33 248 17 86
23 100 30 80 23 -59 78 -167 95 -187 24 -27 58 -40 91 -34 45 9 135 112 185
212 25 51 46 84 46 74 0 -11 -7 -82 -15 -159 -21 -198 -20 -270 5 -295 17 -17
24 -18 52 -8 18 6 34 12 35 12 1 1 -5 22 -13 46 -14 40 -13 62 6 247 12 112
25 227 30 256 10 66 0 87 -43 87 -44 0 -53 -8 -67 -60 -33 -127 -169 -330
-221 -330 -40 0 -85 85 -140 261 -48 157 -64 189 -91 188 -13 0 -33 -4 -45 -9z"/>
<path d="M6925 1472 c-17 -2 -39 -15 -51 -29 -19 -24 -23 -25 -54 -15 -113 40
-245 -29 -314 -166 -42 -82 -168 -182 -211 -166 -8 4 -18 18 -21 31 -11 43 3
196 24 256 l19 57 -24 0 c-13 0 -37 -7 -52 -14 -24 -13 -34 -13 -76 0 -106 32
-173 9 -267 -92 -64 -68 -171 -154 -192 -154 -6 0 -27 31 -46 69 l-36 69 33
36 c38 41 41 58 13 86 -25 25 -30 25 -71 -3 -21 -14 -37 -36 -44 -58 -5 -20
-19 -48 -30 -63 -21 -29 -115 -105 -153 -125 -27 -15 -30 -12 -77 75 l-30 55
33 25 c23 18 32 34 32 54 0 37 -39 67 -67 52 -35 -19 -64 -60 -70 -98 -10 -69
-141 -217 -219 -250 -33 -14 -38 -14 -53 1 -32 32 -17 220 25 323 8 17 -34 15
-70 -3 -27 -14 -34 -14 -75 0 -85 29 -167 12 -233 -49 -102 -93 -139 -287 -68
-358 49 -49 103 -34 197 55 29 28 67 74 84 104 17 29 33 53 36 53 3 0 2 -15
-1 -33 -3 -18 -2 -57 4 -86 11 -59 39 -90 83 -91 66 0 179 82 260 189 l44 59
17 -31 c9 -18 25 -47 36 -64 l20 -33 -58 -29 c-106 -54 -135 -103 -88 -149 22
-23 35 -27 79 -27 100 1 174 74 164 161 l-5 45 57 38 c31 22 71 54 89 71 18
18 34 31 35 29 2 -2 20 -33 41 -69 34 -59 36 -66 21 -75 -134 -78 -167 -114
-145 -156 14 -25 62 -49 97 -49 42 1 105 33 136 69 27 33 31 47 28 111 -1 32
4 38 53 71 l53 36 -5 -62 c-4 -52 -1 -72 17 -109 19 -38 28 -46 58 -52 66 -12
157 54 233 171 23 36 43 65 45 65 1 0 0 -11 -3 -25 -9 -50 9 -137 33 -161 44
-44 101 -30 208 53 51 40 57 42 57 23 0 -34 53 -80 92 -80 67 1 160 61 220
144 l28 39 0 -34 c0 -19 -3 -51 -6 -72 -6 -36 -11 -40 -132 -105 -159 -85
-192 -114 -192 -172 0 -34 6 -47 30 -70 35 -33 76 -41 148 -29 60 9 102 32
149 81 43 45 64 98 70 183 l6 72 46 29 c25 16 65 44 89 61 23 18 44 33 47 33
3 0 5 -19 5 -42 1 -217 257 -222 470 -9 78 78 137 162 125 181 -11 17 -31 11
-42 -12 -18 -41 -146 -171 -205 -208 -109 -71 -202 -77 -238 -17 -32 53 -27
72 21 75 56 4 140 34 182 67 80 60 85 160 9 192 -50 21 -130 12 -187 -21 -24
-14 -63 -52 -87 -84 -40 -52 -214 -190 -225 -178 -7 6 24 211 41 277 8 29 14
54 13 54 -1 0 -15 -1 -32 -3z m-110 -106 c14 -9 25 -20 25 -24 0 -14 -58 -100
-92 -139 -116 -128 -210 -123 -179 10 15 68 66 142 114 166 42 21 87 16 132
-13z m541 26 c37 -25 19 -97 -34 -133 -42 -29 -94 -49 -128 -49 -21 0 -22 2
-12 37 27 97 125 179 174 145z m-2578 -27 c28 -13 52 -28 52 -33 0 -14 -118
-173 -163 -219 -46 -48 -89 -57 -107 -24 -26 49 -2 181 43 244 46 61 94 70
175 32z m1370 0 c28 -13 52 -26 52 -29 0 -3 -27 -45 -61 -93 -82 -118 -136
-173 -170 -173 -42 0 -52 21 -47 102 4 89 37 162 87 195 43 29 73 29 139 -2z
m-842 -289 c6 -24 -16 -79 -36 -91 -17 -10 -70 -9 -81 2 -19 19 1 51 49 82 58
36 60 37 68 7z m354 -13 c-1 -46 -18 -71 -56 -81 -46 -13 -66 -4 -62 26 2 19
17 36 52 60 26 17 52 32 57 32 5 0 9 -17 9 -37z m1146 -85 c-19 -125 -53 -181
-119 -193 -68 -13 -110 9 -110 56 0 39 50 89 146 143 83 47 90 46 83 -6z"/>
<path d="M2517 603 c-43 -4 -46 -6 -37 -24 6 -11 21 -19 36 -19 19 0 24 -4 20
-17 -2 -10 -7 -33 -11 -50 -6 -28 -9 -31 -25 -23 -51 27 -122 -6 -156 -72 -22
-42 -84 -100 -103 -96 -21 4 -26 66 -11 126 13 51 10 58 -18 43 -15 -8 -29 -8
-48 -1 -36 14 -77 4 -115 -27 -38 -33 -86 -27 -135 16 -36 32 -74 41 -74 17 0
-7 -14 -16 -31 -20 -49 -10 -89 -60 -89 -111 0 -65 33 -100 95 -99 38 1 52 7
81 35 21 20 40 51 47 77 8 29 16 41 25 37 7 -3 19 -5 26 -5 9 0 11 -16 8 -58
-4 -59 11 -92 42 -92 18 0 75 44 101 80 l23 31 7 -38 c12 -63 48 -70 113 -22
l42 31 0 -25 c0 -29 24 -57 48 -57 9 0 40 25 69 55 30 31 53 50 52 43 -8 -62
15 -104 51 -93 53 17 183 165 159 181 -7 4 -16 -2 -22 -12 -18 -34 -116 -126
-129 -122 -7 3 -14 17 -16 31 -3 22 22 167 45 265 3 15 1 21 -8 20 -8 -1 -35
-3 -62 -5z m-340 -173 c11 0 -4 -27 -42 -80 -36 -47 -51 -61 -68 -58 -29 4
-33 38 -12 95 19 50 45 65 90 52 16 -5 31 -9 32 -9z m306 9 c12 -7 23 -13 25
-14 6 -5 -68 -109 -90 -128 -40 -34 -64 25 -36 90 26 61 55 76 101 52z m-602
-9 c32 -18 23 -105 -16 -143 -37 -37 -105 -7 -105 46 0 30 29 76 58 91 33 18
38 19 63 6z"/>
<path d="M1465 548 c-46 -16 -95 -57 -95 -79 0 -22 18 -26 26 -4 3 8 29 26 57
40 80 40 157 30 157 -20 0 -28 -43 -65 -74 -65 -12 0 -27 -5 -34 -12 -17 -17
-15 -41 2 -35 9 4 17 -1 21 -12 3 -9 19 -38 35 -64 32 -51 58 -59 98 -31 28
19 31 50 3 33 -10 -7 -26 -9 -34 -6 -16 6 -67 79 -67 95 0 4 16 16 36 27 60
32 76 98 31 130 -25 17 -116 19 -162 3z"/>
<path d="M2873 548 c-6 -7 -13 -21 -16 -30 -4 -10 -17 -18 -30 -18 -21 0 -47
-16 -47 -30 0 -3 12 -6 28 -5 17 0 26 -5 24 -13 -25 -128 -26 -152 -5 -179 14
-20 29 -27 47 -26 37 3 86 40 86 65 l0 21 -22 -20 c-33 -29 -44 -34 -62 -27
-19 7 -21 64 -5 130 13 49 19 52 108 56 33 2 56 8 59 16 3 9 -15 12 -68 12
-60 0 -71 2 -66 15 3 8 9 22 12 30 8 19 -29 21 -43 3z"/>
<path d="M3490 551 c-51 -16 -91 -43 -101 -67 -14 -38 0 -48 24 -18 44 57 166
84 201 45 30 -34 -9 -91 -63 -91 -11 0 -27 -7 -35 -16 -15 -14 -14 -18 14 -44
16 -15 30 -33 30 -38 0 -21 52 -72 74 -72 12 0 33 11 46 25 27 29 22 43 -8 24
-18 -11 -24 -10 -43 6 -11 11 -29 36 -40 56 l-18 37 30 12 c16 7 39 24 49 38
46 58 5 113 -84 111 -28 0 -62 -4 -76 -8z"/>
<path d="M1455 488 c-4 -11 -55 -255 -55 -264 0 -2 11 -4 24 -4 22 0 25 7 46
123 13 67 23 129 24 137 1 18 -32 26 -39 8z"/>
<path d="M3474 492 c-9 -6 -38 -138 -52 -240 -4 -31 -2 -33 19 -30 21 3 25 13
46 123 12 66 22 128 23 138 0 18 -17 22 -36 9z"/>
<path d="M3100 476 c0 -7 -12 -16 -28 -19 -89 -18 -128 -130 -65 -188 31 -30
91 -32 130 -3 37 27 73 81 73 109 0 18 4 21 24 18 28 -6 96 14 96 27 0 5 -26
8 -58 7 -53 -2 -62 1 -96 31 -38 33 -76 42 -76 18z m60 -91 c0 -68 -33 -115
-80 -115 -32 0 -60 31 -60 65 0 29 37 84 63 94 12 5 34 4 49 -1 23 -8 28 -16
28 -43z"/>
<path d="M4340 475 c0 -8 -7 -15 -15 -15 -34 0 -75 -32 -110 -85 -60 -89 -122
-122 -164 -87 -51 41 -14 162 49 162 20 0 31 -6 35 -19 4 -12 12 -18 21 -14
23 8 16 42 -11 55 -33 15 -109 -14 -133 -50 -39 -59 -120 -131 -156 -137 -42
-8 -64 -2 -73 21 -7 18 12 34 42 34 11 0 37 14 58 31 44 37 49 71 12 95 -47
31 -122 -8 -150 -78 -28 -71 -6 -128 57 -143 32 -8 111 24 151 62 27 27 27 27
27 4 0 -36 43 -71 87 -71 40 0 99 30 121 61 17 25 25 24 37 -3 6 -12 22 -30
37 -41 55 -41 158 14 179 97 10 40 11 41 54 41 43 0 44 -1 54 -42 6 -23 11
-58 11 -77 0 -29 3 -34 18 -29 26 9 51 33 83 81 43 64 61 102 55 118 -10 27
-31 14 -44 -26 -7 -22 -25 -61 -40 -85 l-28 -45 -13 62 c-18 89 -45 138 -76
138 -29 0 -30 -7 -10 -34 8 -11 15 -24 15 -29 0 -19 -71 3 -107 32 -40 33 -73
40 -73 16z m-460 -45 c0 -11 -9 -29 -20 -40 -20 -20 -67 -37 -76 -27 -7 6 12
45 34 70 21 24 62 23 62 -3z m496 -2 c24 -11 26 -16 21 -56 -6 -57 -35 -96
-74 -100 -98 -10 -77 136 24 167 1 1 14 -4 29 -11z"/>
<path d="M4814 466 c-62 -28 -99 -115 -74 -175 29 -71 125 -60 219 25 l38 34
-8 -46 c-17 -88 17 -88 60 0 41 84 84 130 113 123 12 -4 28 -2 34 4 17 14 42
-26 71 -110 19 -56 20 -69 9 -86 -21 -32 -78 -66 -105 -63 -30 3 -43 -28 -17
-38 45 -17 138 62 208 179 53 86 72 132 63 146 -13 23 -32 9 -44 -31 -15 -50
-52 -128 -61 -128 -3 0 -12 22 -19 48 -16 65 -48 115 -67 108 -9 -3 -22 1 -31
9 -29 30 -83 -4 -135 -85 l-29 -45 7 40 c13 67 11 80 -11 80 -13 0 -21 -8 -23
-22 -2 -12 -21 -42 -44 -68 -64 -73 -148 -106 -178 -70 -17 20 -5 45 20 45 44
0 110 51 110 84 0 12 -4 27 -8 33 -12 20 -64 24 -98 9z m63 -33 c8 -20 -48
-73 -78 -73 -16 0 -19 4 -14 23 17 54 78 87 92 50z"/>
</g>
</svg>
